# xmcd CD database file
#
# Track frame offsets:
#	150
#	12257
#	24123
#	38338
#	55259
#	67021
#	90290
#	101853
#	140703
#	165126
#	171699
#	192211
#
# Disc length: 2857 seconds
#
# Revision: 0
# Processed by: cddbd v1.5.2PL0 Copyright (c) Steve Scherf et al.
# Submitted via: CDex 1.51
#
DISCID=930b270c
DTITLE=B.B. KING - Icon 2
DYEAR=2011
DGENRE=Blues
TTITLE0=How Blue Can You Get
TTITLE1=Help The Poor
TTITLE2=Every Day I Have The Blues(Live)
TTITLE3=Sweet Little Angel(Live)
TTITLE4=All Over Again
TTITLE5=Don't Answer The Door
TTITLE6=Paying The Cost To Be The Boss
TTITLE7=Why I Sing The Blues
TTITLE8=The Thrill Is Gone
TTITLE9=Nobody Loves Me But My Mother
TTITLE10=Hummingbird
TTITLE11=Chains And Things
EXTD=YEAR: 2011
EXTT0=
EXTT1=
EXTT2=
EXTT3=
EXTT4=
EXTT5=
EXTT6=
EXTT7=
EXTT8=
EXTT9=
EXTT10=
EXTT11=
PLAYORDER=
